<svg width="40" height="40" viewBox="0 0 40 40" fill="none" xmlns="http://www.w3.org/2000/svg">
<path fill-rule="evenodd" clip-rule="evenodd" d="M20.0209 37.8667C20.0209 37.8667 32.975 27.8015 32.975 17.4875C32.975 10.3331 27.1753 4.53333 20.0209 4.53333C12.8665 4.53333 7.06666 10.3331 7.06666 17.4875C7.06666 22.8055 10.5105 28.0573 13.8469 31.8974L14.8794 28.2777L16.0976 28.6251L16.8243 26.0772C13.3401 24.7801 10.8581 21.4237 10.8581 17.4875C10.8581 12.4271 14.9604 8.3248 20.0209 8.3248C25.0813 8.3248 29.1836 12.4271 29.1836 17.4875C29.1836 22.5479 25.0813 26.6502 20.0209 26.6502C19.5782 26.6502 19.143 26.6189 18.7171 26.5582L17.9748 29.1606L19.013 29.4567L17.2945 35.4819C18.889 36.9873 20.0209 37.8667 20.0209 37.8667ZM27.2878 17.4875C27.2878 21.501 24.0343 24.7545 20.0209 24.7545C16.0074 24.7545 12.7539 21.501 12.7539 17.4875C12.7539 13.4741 16.0074 10.2205 20.0209 10.2205C24.0343 10.2205 27.2878 13.4741 27.2878 17.4875ZM23.827 12.4428L22.5958 13.674C22.9522 13.9853 23.2734 14.336 23.5525 14.7192L24.8546 13.4172C24.5497 13.0554 24.2049 12.7284 23.827 12.4428ZM24.7602 18.4354C24.7602 17.2657 24.4424 16.1703 23.8885 15.2308L25.2218 13.8974C25.9269 14.917 26.3399 16.154 26.3399 17.4875C26.3399 20.1192 24.7312 22.3751 22.4435 23.3255C23.8578 22.1667 24.7602 20.4064 24.7602 18.4354Z" fill="black"/>
</svg>
